<?xml version="1.0" standalone="no"?><!DOCTYPE svg PUBLIC "-//W3C//DTD SVG 1.1//EN" "http://www.w3.org/Graphics/SVG/1.1/DTD/svg11.dtd"><svg t="1616421252535" class="icon" viewBox="0 0 1097 1024" version="1.1" xmlns="http://www.w3.org/2000/svg" p-id="1264" xmlns:xlink="http://www.w3.org/1999/xlink" width="214.2578125" height="200"><defs><style type="text/css"></style></defs><path d="M914.92095659 508.20726215c-8.70775694 0-17.41551275-3.32381411-24.06314212-9.98206236L473.16160057 79.52016043 55.45476665 498.22519979c-13.25278094 13.28463872-34.76731107 13.3164965-48.05194866 0.05309667-13.28463872-13.25278094-13.3164965-34.76731107-0.05309554-48.05194979l441.75935602-442.82127702c6.37152939-6.39276715 15.02618965-9.98206237 24.0525221-9.98206236s17.68099385 3.58929522 24.0525221 9.98206236l441.75935602 442.82127702c13.25278094 13.28463872 13.23154205 34.79916885-0.05309554 48.05194979-6.63700935 6.62639047-15.31290851 9.92896683-23.99942656 9.92896569z" fill="#FFB3FF" p-id="1265"></path><path d="M776.530118 895.998269H179.199258c-16.491932 0-29.866543-13.374611-29.866543-29.866543V538.533082c0-16.491932 13.374611-29.866543 29.866543-29.866543s29.866543 13.374611 29.866543 29.866543v297.732101h537.597774V538.533082c0-16.491932 13.374611-29.866543 29.866543-29.866543s29.866543 13.374611 29.866543 29.866543v327.598644c0 16.491932-13.374611 29.866543-29.866543 29.866543z" fill="#FFD700" p-id="1266"></path><path d="M398.839682 542.2664h-80.891665c-26.077225 0-47.291804-21.214579-47.291804-47.291804v-80.891665c0-26.077225 21.214579-47.291804 47.291804-47.291804h80.891665c26.077225 0 47.291804 21.214579 47.291804 47.291804v80.891665c0 26.077225-21.214579 47.291804-47.291804 47.291804zM326.665314 486.266632h63.466404v-63.466404h-63.466404v63.466404z" fill="#d81e06" p-id="1267"></path><path d="M403.506329 762.532155h-80.891665c-26.077225 0-47.291804-21.214579-47.291804-47.291805v-80.891665c0-26.077225 21.214579-47.291804 47.291804-47.291804h80.891665c26.077225 0 47.291804 21.214579 47.291804 47.291804v80.891665c0 26.077225-21.214579 47.291804-47.291804 47.291805zM331.331961 706.532387h63.466404v-63.466404h-63.466404v63.466404z" fill="#f4ea2a" p-id="1268"></path><path d="M649.905309 765.332143h-80.891665c-26.077225 0-47.291804-21.214579-47.291804-47.291804v-80.891665c0-26.077225 21.214579-47.291804 47.291804-47.291804h80.891665c26.077225 0 47.291804 21.214579 47.291804 47.291804v80.891665c0 26.077225-21.214579 47.291804-47.291804 47.291804zM577.730941 709.332375h63.466404v-63.466404h-63.466404v63.466404z" fill="#1296db" p-id="1269"></path></svg>